<?xml version="1.0" standalone="no"?>
<!DOCTYPE svg PUBLIC "-//W3C//DTD SVG 20010904//EN"
 "http://www.w3.org/TR/2001/REC-SVG-20010904/DTD/svg10.dtd">
<svg version="1.0" xmlns="http://www.w3.org/2000/svg"
 width="126.000000pt" height="39.000000pt" viewBox="0 0 126.000000 39.000000"
 preserveAspectRatio="xMidYMid meet">

<g transform="translate(0.000000,39.000000) scale(0.100000,-0.100000)"
fill="#000000" stroke="none">
<path d="M1129 302 c-68 -44 -79 -65 -15 -31 31 17 58 35 62 40 13 21 -4 18
-47 -9z"/>
<path d="M330 231 c-7 -14 -7 -34 0 -67 12 -53 9 -59 -37 -69 -31 -6 -33 -5
-33 20 l0 27 -34 -30 c-19 -16 -52 -35 -73 -42 -52 -17 -57 -21 -42 -31 30
-19 67 -9 93 23 23 30 26 31 26 11 0 -31 14 -36 60 -22 57 17 70 40 70 121 0
70 -11 93 -30 59z"/>
<path d="M536 231 c-3 -5 1 -14 8 -20 16 -13 32 2 21 19 -8 12 -22 13 -29 1z"/>
<path d="M412 218 c-13 -13 -16 -89 -6 -149 7 -40 -1 -38 121 -22 41 5 43 7
58 56 20 67 20 67 -14 67 -18 0 -37 -9 -52 -26 -13 -14 -32 -35 -41 -45 -10
-10 -25 -19 -34 -19 -15 0 -16 9 -11 75 7 74 2 86 -21 63z m158 -108 c0 -10
-26 -20 -51 -20 -26 0 -24 19 4 29 23 9 47 4 47 -9z"/>
<path d="M1033 208 c-4 -7 -8 -33 -8 -58 0 -42 -2 -45 -27 -48 -18 -2 -28 1
-28 10 0 9 -3 10 -8 2 -11 -18 -72 -28 -72 -12 0 9 -2 10 -8 1 -4 -6 -20 -13
-36 -15 -26 -3 -28 -1 -30 39 -4 77 -53 98 -101 42 -36 -43 -31 -83 10 -87 19
-3 33 2 42 14 11 16 13 13 13 -25 0 -23 3 -40 8 -38 7 5 94 15 180 22 28 2 49
11 58 22 12 17 13 16 14 -10 0 -25 3 -27 28 -21 67 15 90 26 101 50 18 41 14
54 -18 54 -22 0 -31 -6 -37 -22 -7 -25 -22 -38 -41 -38 -9 0 -13 18 -13 59 0
59 -11 83 -27 59z m-255 -75 c2 -8 -5 -13 -16 -13 -28 0 -52 10 -52 22 0 14
63 5 68 -9z"/>
<path d="M971 200 c-14 -3 -27 -12 -29 -19 -4 -11 2 -12 24 -7 33 9 37 12 33
24 -2 4 -15 6 -28 2z"/>
</g>
</svg>
